<?xml version="1.0" encoding="utf-8"?>
<!-- Generator: Adobe Illustrator 16.0.0, SVG Export Plug-In . SVG Version: 6.00 Build 0)  -->
<!DOCTYPE svg PUBLIC "-//W3C//DTD SVG 1.1//EN" "http://www.w3.org/Graphics/SVG/1.1/DTD/svg11.dtd">
<svg version="1.1" xmlns="http://www.w3.org/2000/svg" xmlns:xlink="http://www.w3.org/1999/xlink" x="0px" y="0px"
	 width="104px" height="104px" viewBox="0 0 104 104" enable-background="new 0 0 104 104" xml:space="preserve">
<g id="Layer_1_1_">
	<path fill="#316699" d="M103.971,51.935c0,28.698-23.268,51.967-51.969,51.967S0.033,80.632,0.033,51.935
		c0-28.703,23.268-51.968,51.969-51.968S103.971,23.232,103.971,51.935"/>
</g>
<g id="Layer_2">
	<g>
		<path fill="none" stroke="#FFFFFF" stroke-width="2.5" d="M58.252,59v17.689h1.619h10.518c2.129,0,3.916-1.871,3.916-4.008V51.807
			h2.828c1.137,0,1.523-0.56,1.652-0.882c0.129-0.32,0.227-0.996-0.592-1.783L53.791,25.653c-0.514-0.493-1.193-0.765-1.92-0.765
			c-0.725,0-1.406,0.272-1.919,0.765L25.55,49.142c-0.818,0.787-0.723,1.463-0.593,1.783c0.13,0.322,0.516,0.882,1.651,0.882h3.298
			v20.875c0,2.172,1.875,4.008,3.998,4.008h11.867V59H58.252z"/>
	</g>
</g>
</svg>
