<?xml version="1.0" encoding="utf-8"?>
<!-- Generator: Adobe Illustrator 16.0.0, SVG Export Plug-In . SVG Version: 6.00 Build 0)  -->
<!DOCTYPE svg PUBLIC "-//W3C//DTD SVG 1.1//EN" "http://www.w3.org/Graphics/SVG/1.1/DTD/svg11.dtd">
<svg version="1.1" xmlns="http://www.w3.org/2000/svg" xmlns:xlink="http://www.w3.org/1999/xlink" x="0px" y="0px" width="104px"
	 height="104px" viewBox="0 0 104 104" enable-background="new 0 0 104 104" xml:space="preserve">
<g id="Layer_1">
	<path fill="#316699" d="M103.971,51.935c0,28.698-23.268,51.967-51.969,51.967c-28.701,0-51.969-23.27-51.969-51.967
		c0-28.703,23.268-51.968,51.969-51.968C80.703-0.033,103.971,23.232,103.971,51.935"/>
</g>
<g id="Layer_2">
	<g>
		<path fill="#FFFFFF" d="M29.088,31.392c0.971,0,1.713-0.03,2.451,0.007c1.776,0.091,2.651-0.697,2.615-2.507
			c-0.035-1.604,0.004-3.209-0.015-4.813c-0.004-0.415,0.073-0.942-0.416-1.139c-0.49-0.196-0.787,0.249-1.081,0.539
			c-1.582,1.559-3.192,3.094-4.707,4.716c-0.854,0.914-2.69,1.779-2.238,2.825C26.119,32.002,28.061,31.207,29.088,31.392
			 M69.129,50.454c-0.462,0.666-0.824,1.159-1.153,1.672C64.373,57.76,60.758,63.386,57.19,69.04
			c-0.762,1.205-1.402,1.925-2.565,0.403c-0.534-0.699-1.339-1.156-2.21-1.283c-1.535-0.222-1.281-0.942-0.668-1.896
			c2.172-3.388,4.333-6.782,6.475-10.189c0.342-0.545,1.074-1.112,0.612-1.799c-0.359-0.534-1.151-0.304-1.756-0.306
			c-8.67-0.015-17.338-0.004-26.007-0.04c-1.104-0.004-2.8,0.354-2.812-1.277c-0.013-1.69,1.711-1.243,2.784-1.248
			c8.979-0.033,17.959-0.092,26.935,0.047c2.408,0.038,4.079-0.572,5.011-2.834c0.272-0.661,1.19-1.214,0.786-1.952
			c-0.448-0.82-1.463-0.449-2.227-0.452c-9.968-0.027-19.938,0.002-29.907-0.068c-1.204-0.009-3.299,0.756-3.339-1.188
			c-0.041-1.941,2.047-1.305,3.268-1.307c11.084-0.029,22.167,0.014,33.251,0.04c0.492,0.001,1.081,0.164,1.385-0.311
			c1.278-2.005,3.239-3.711,3.291-6.299c0.084-4.395,0.009-8.793,0.039-13.189c0.011-1.559-0.683-2.25-2.243-2.249
			c-9.783,0.013-19.566,0.011-29.35-0.021c-1.422-0.004-2.025,0.571-1.997,1.989c0.037,1.918,0.056,3.842-0.055,5.756
			c-0.149,2.596-1.297,3.673-3.876,3.753c-1.608,0.051-3.219,0.011-4.829,0.02c-2.629,0.016-2.754,0.121-2.758,2.7
			c-0.015,14.366-0.023,28.732-0.025,43.098c-0.001,2.829,0.396,3.26,3.195,3.266c12.879,0.025,25.758,0.032,38.639,0.026
			c2.904-0.004,3.259-0.397,3.262-3.381c0.012-8.793,0.017-17.586,0.011-26.378C69.509,51.877,69.671,51.243,69.129,50.454
			 M71.88,34.611c1.275-1.961,2.48-3.875,3.747-5.746c1.188-1.754,2.985-1.999,4.576-0.637c1.218,1.041,1.657,2.199,0.655,3.728
			c-2.711,4.142-5.295,8.367-8.027,12.495c-1.075,1.623-1.524,3.283-1.516,5.222c0.05,9.902,0.022,19.804,0.004,29.706
			c-0.007,3.626-1.003,4.638-4.64,4.642c-13.183,0.008-26.365,0.001-39.547-0.026c-3.515-0.007-4.52-1.047-4.519-4.558
			c0.002-15.41,0.033-30.819-0.003-46.228c-0.004-1.678,0.497-2.929,1.712-4.085c2.733-2.602,5.385-5.292,8.02-7.995
			c0.887-0.911,1.862-1.296,3.127-1.292c10.707,0.034,21.414,0.016,32.121,0.045c2.705,0.008,3.693,0.993,3.742,3.706
			c0.053,2.97,0,5.942,0.032,8.912C71.373,33.138,71.129,33.858,71.88,34.611"/>
		<path fill="#316699" d="M47.628,77.866c1.37-0.498,6.29-4.175,6.755-5c0.826-1.465-0.216-2.324-1.206-3.046
			c-1.216-0.889-3.096-0.764-3.436,0.279C48.936,72.575,48.357,75.125,47.628,77.866 M37.998,66.682
			c0-0.002-0.001-0.005-0.001-0.007c-2.592-0.002-5.185-0.022-7.777,0.007c-0.846,0.009-1.945-0.054-2.001,1.124
			c-0.057,1.164,1.004,1.295,1.87,1.301c5.246,0.027,10.493,0.029,15.74-0.004c0.861-0.006,1.911-0.164,1.824-1.343
			c-0.078-1.041-1.078-1.057-1.877-1.065C43.184,66.668,40.59,66.683,37.998,66.682 M40.488,58.936
			c-3.147-0.002-6.295-0.035-9.442,0.01c-1.109,0.017-2.777-0.32-2.811,1.29c-0.036,1.761,1.714,1.444,2.862,1.453
			c6.233,0.05,12.466,0.031,18.701,0.03c0.676-0.001,1.361,0.018,1.997-0.289c0.48-0.231,0.797-0.584,0.787-1.146
			c-0.011-0.562-0.328-0.975-0.83-1.107c-0.586-0.155-1.211-0.222-1.821-0.226C46.783,58.928,43.636,58.938,40.488,58.936
			 M47.182,38.679c5.437,0.003,10.875,0.023,16.312-0.003c1.025-0.005,2.387,0.074,2.427-1.362c0.041-1.498-1.332-1.311-2.354-1.396
			c-0.123-0.01-0.246-0.005-0.371-0.005c-10.69-0.006-21.379-0.026-32.069,0c-1.15,0.002-2.898-0.369-2.874,1.408
			c0.021,1.576,1.69,1.327,2.802,1.335C36.43,38.699,41.806,38.681,47.182,38.679 M69.129,50.454c0.542,0.789,0.38,1.424,0.38,2.02
			c0.006,8.792,0.003,17.584-0.01,26.377c-0.004,2.983-0.356,3.377-3.262,3.379c-12.88,0.009-25.76,0.001-38.64-0.024
			c-2.798-0.005-3.195-0.437-3.195-3.266c0.001-14.366,0.01-28.733,0.026-43.098c0.002-2.579,0.128-2.684,2.757-2.7
			c1.609-0.009,3.221,0.031,4.829-0.02c2.58-0.081,3.727-1.156,3.876-3.753c0.11-1.914,0.09-3.838,0.055-5.756
			c-0.028-1.418,0.574-1.994,1.996-1.989c9.784,0.032,19.568,0.035,29.351,0.021c1.562-0.002,2.254,0.689,2.243,2.249
			c-0.03,4.396,0.045,8.793-0.039,13.189c-0.051,2.588-2.013,4.293-3.292,6.299c-0.302,0.474-0.892,0.312-1.384,0.31
			c-11.084-0.025-22.168-0.067-33.25-0.039c-1.221,0.003-3.309-0.635-3.269,1.306c0.041,1.944,2.135,1.18,3.338,1.188
			c9.971,0.069,19.939,0.041,29.908,0.069c0.764,0.001,1.778-0.37,2.227,0.451c0.404,0.739-0.514,1.292-0.786,1.952
			c-0.933,2.262-2.604,2.872-5.01,2.834c-8.977-0.139-17.957-0.08-26.935-0.047c-1.074,0.004-2.797-0.444-2.784,1.248
			c0.013,1.631,1.708,1.273,2.812,1.277c8.668,0.036,17.339,0.025,26.008,0.041c0.605,0,1.396-0.229,1.756,0.305
			c0.462,0.688-0.271,1.254-0.612,1.799c-2.141,3.407-4.303,6.802-6.476,10.188c-0.613,0.954-0.867,1.675,0.669,1.896
			c0.871,0.127,1.676,0.584,2.209,1.283c1.164,1.522,1.806,0.802,2.565-0.403c3.568-5.654,7.184-11.28,10.786-16.914
			C68.306,51.613,68.668,51.12,69.129,50.454"/>
		<path fill="#316699" d="M29.087,31.392c-1.026-0.185-2.968,0.61-3.391-0.371c-0.451-1.046,1.384-1.911,2.238-2.826
			c1.516-1.622,3.125-3.157,4.707-4.716c0.295-0.29,0.59-0.734,1.081-0.539c0.489,0.197,0.411,0.725,0.416,1.14
			c0.019,1.604-0.019,3.208,0.014,4.812c0.037,1.811-0.838,2.599-2.614,2.507C30.801,31.362,30.059,31.392,29.087,31.392"/>
		<path fill="#FFFFFF" d="M47.182,38.682c-5.376-0.001-10.752,0.017-16.127-0.026c-1.113-0.009-2.782,0.24-2.803-1.335
			c-0.022-1.775,1.724-1.404,2.874-1.409c10.69-0.024,21.379-0.005,32.07,0.001c0.123,0,0.248-0.004,0.37,0.005
			c1.023,0.085,2.395-0.102,2.354,1.397c-0.04,1.435-1.401,1.355-2.425,1.36C58.057,38.702,52.62,38.683,47.182,38.682"/>
		<path fill="#FFFFFF" d="M40.488,58.936c3.147,0.002,6.295-0.007,9.442,0.016c0.609,0.004,1.234,0.07,1.821,0.226
			c0.503,0.134,0.818,0.547,0.83,1.107c0.01,0.562-0.306,0.913-0.787,1.146c-0.635,0.306-1.321,0.287-1.997,0.289
			c-6.233,0.001-12.468,0.019-18.701-0.031c-1.149-0.009-2.898,0.307-2.862-1.453c0.034-1.609,1.702-1.272,2.811-1.29
			C34.193,58.9,37.341,58.934,40.488,58.936"/>
		<path fill="#FFFFFF" d="M37.998,66.681c2.593,0.001,5.185-0.013,7.777,0.014c0.799,0.009,1.801,0.024,1.878,1.065
			c0.087,1.179-0.963,1.337-1.825,1.342c-5.249,0.034-10.494,0.032-15.741,0.005c-0.865-0.006-1.926-0.137-1.87-1.301
			c0.057-1.178,1.155-1.115,2.001-1.124c2.592-0.029,5.185-0.009,7.778-0.007C37.998,66.677,37.998,66.679,37.998,66.681"/>
		<path fill="#FFFFFF" d="M47.628,77.866c0.73-2.741,1.308-5.291,2.114-7.767c0.341-1.043,2.22-1.168,3.435-0.279
			c0.991,0.722,2.033,1.581,1.207,3.046C53.918,73.691,48.998,77.367,47.628,77.866"/>
	</g>
</g>
</svg>
