<?xml version="1.0" encoding="utf-8"?>
<!-- Generator: Adobe Illustrator 16.0.0, SVG Export Plug-In . SVG Version: 6.00 Build 0)  -->
<!DOCTYPE svg PUBLIC "-//W3C//DTD SVG 1.1//EN" "http://www.w3.org/Graphics/SVG/1.1/DTD/svg11.dtd">
<svg version="1.1" id="Layer_2" xmlns="http://www.w3.org/2000/svg" xmlns:xlink="http://www.w3.org/1999/xlink" x="0px" y="0px"
	 width="104px" height="104px" viewBox="0 0 104 104" enable-background="new 0 0 104 104" xml:space="preserve">
<g>
	<g>
		<defs>
			<rect id="touricon_1" y="-0.001" width="104" height="104"/>
		</defs>
		<clipPath id="touricon_2">
			<use xlink:href="#touricon_1"  overflow="visible"/>
		</clipPath>
		<path clip-path="url(#touricon_2)" fill="#316699" d="M52,103.999c28.719,0,52-23.28,52-52C104,23.28,80.719-0.002,52-0.002
			c-28.718,0-52,23.282-52,52.001C0,80.719,23.281,103.999,52,103.999"/>
	</g>
	<g>
		<path fill="none" stroke="#FFFFFF" stroke-width="2.5" stroke-miterlimit="10" d="M61.094,62.154L27.049,77.921l15.767-34.045
			L76.859,28.11L61.094,62.154z M51.954,11.513L51.954,11.513 M51.954,48.455c-2.49,0-4.56,2.07-4.56,4.559
			c0,2.489,2.07,4.561,4.56,4.561c2.491,0,4.562-2.07,4.562-4.561C56.516,50.525,54.445,48.455,51.954,48.455z"/>
	</g>
</g>
</svg>
